HIERARCHY
ROOT root
{
	OFFSET 0.00 0.00 0.00
	CHANNELS 6 Xposition Yposition Zposition Zrotation Xrotation Yrotation
	JOINT lowerback
	{
		OFFSET 0 0 0
		CHANNELS 6 Xposition Yposition Zposition Zrotation Xrotation Yrotation
		JOINT upperback
		{
			OFFSET -0.214371 12.3768 -1.12219
			CHANNELS 6 Xposition Yposition Zposition Zrotation Xrotation Yrotation
			JOINT thorax
			{
				OFFSET -0.00137213 12.3873 0.296195
				CHANNELS 6 Xposition Yposition Zposition Zrotation Xrotation Yrotation
				JOINT lowerneck
				{
					OFFSET 0.0883157 12.5016 0.82912
					CHANNELS 6 Xposition Yposition Zposition Zrotation Xrotation Yrotation
					JOINT upperneck
					{
						OFFSET -1 10.1794 0.943522
						CHANNELS 6 Xposition Yposition Zposition Zrotation Xrotation Yrotation
						JOINT head
						{
							OFFSET 0.667525 10.2797 -1.57149
							CHANNELS 6 Xposition Yposition Zposition Zrotation Xrotation Yrotation
							End Site
							{
								OFFSET 0 0 0
							}
						}
					}
				}
				JOINT lclavicle
				{
					OFFSET 0.0883157 12.5016 0.82912
					CHANNELS 6 Xposition Yposition Zposition Zrotation Xrotation Yrotation
					JOINT lhumerus
					{
						OFFSET 20.61 4.45006 1.43784
						CHANNELS 6 Xposition Yposition Zposition Zrotation Xrotation Yrotation
						JOINT lradius
						{
							OFFSET 0 -30.3438 0
							CHANNELS 6 Xposition Yposition Zposition Zrotation Xrotation Yrotation
							JOINT lwrist
							{
								OFFSET 0 -18.964 0
								CHANNELS 6 Xposition Yposition Zposition Zrotation Xrotation Yrotation
								JOINT lhand
								{
									OFFSET 0 -9.48199 0
									CHANNELS 6 Xposition Yposition Zposition Zrotation Xrotation Yrotation
									JOINT lfingers
									{
										OFFSET 0 -3.17138 0
										CHANNELS 6 Xposition Yposition Zposition Zrotation Xrotation Yrotation
										End Site
										{
											OFFSET 0 -2.55685 0
										}
									}
								}
								JOINT lthumb
								{
									OFFSET 0 -9.48199 0
									CHANNELS 6 Xposition Yposition Zposition Zrotation Xrotation Yrotation
									End Site
									{
										OFFSET 0 -3.67114 0
									}
								}
							}
						}
					}
				}
				JOINT rclavicle
				{
					OFFSET 0.0883157 12.5016 0.82912
					CHANNELS 6 Xposition Yposition Zposition Zrotation Xrotation Yrotation
					JOINT rhumerus
					{
						OFFSET -20.61 4.45 1.44
						CHANNELS 6 Xposition Yposition Zposition Zrotation Xrotation Yrotation
						JOINT rradius
						{
							OFFSET 0 -29.5102 0
							CHANNELS 6 Xposition Yposition Zposition Zrotation Xrotation Yrotation
							JOINT rwrist
							{
								OFFSET 0 -19.2342 0
								CHANNELS 6 Xposition Yposition Zposition Zrotation Xrotation Yrotation
								JOINT rhand
								{
									OFFSET 0 -9.61712 0
									CHANNELS 6 Xposition Yposition Zposition Zrotation Xrotation Yrotation
									JOINT rfingers
									{
										OFFSET 0 -3.29215 0
										CHANNELS 6 Xposition Yposition Zposition Zrotation Xrotation Yrotation
										End Site
										{
											OFFSET 0 -2.557 0
										}
									}
								}
								JOINT rthumb
								{
									OFFSET 0 -9.61712 0
									CHANNELS 6 Xposition Yposition Zposition Zrotation Xrotation Yrotation
									End Site
									{
										OFFSET 0 -3.671 0
									}
								}
							}
						}
					}
				}
			}
		}
	}
	JOINT rfemur
	{
		OFFSET -8.46272 -9.62775 4.76248
		CHANNELS 6 Xposition Yposition Zposition Zrotation Xrotation Yrotation
		JOINT rtibia
		{
			OFFSET 1.00552e-005 -38.0331 0
			CHANNELS 6 Xposition Yposition Zposition Zrotation Xrotation Yrotation
			JOINT rfoot
			{
				OFFSET 1.14428e-005 -43.2815 0
				CHANNELS 6 Xposition Yposition Zposition Zrotation Xrotation Yrotation
				JOINT rtoes
				{
					OFFSET 0 -14.1868 -3.08763
					CHANNELS 6 Xposition Yposition Zposition Zrotation Xrotation Yrotation
					End Site
					{
						OFFSET 0 -7.27332 0
					}
				}
			}
		}
	}
	JOINT lfemur
	{
		OFFSET 9.10607 -9.62778 4.76249
		CHANNELS 6 Xposition Yposition Zposition Zrotation Xrotation Yrotation
		JOINT ltibia
		{
			OFFSET -1.01399e-005 -38.3535 0
			CHANNELS 6 Xposition Yposition Zposition Zrotation Xrotation Yrotation
			JOINT lfoot
			{
				OFFSET -1.12937e-005 -42.7176 0
				CHANNELS 6 Xposition Yposition Zposition Zrotation Xrotation Yrotation
				JOINT ltoes
				{
					OFFSET 0 -13.9965 -2.83857
					CHANNELS 6 Xposition Yposition Zposition Zrotation Xrotation Yrotation
					End Site
					{
						OFFSET 0 -7.16348 0
					}
				}
			}
		}
	}
}
MOTION
Frames: 5
Frame Time: 0.00833333
-2.90108	98.6992	133.208	1.79582	-5.47218	-3.52718	0 0 0 -1.37327	6.13949	-0.219259	-0.214371 12.3768 -1.12219 0.255455	1.71616	-0.372073	-0.00137213 12.3873 0.296195 1.05596	-1.66276	-0.184238	0.0883157 12.5016 0.82912 3.72947	-1.66801	7.77938	-1 10.1794 0.943522 -7.64134	19.8054	10.9742	0.667525 10.2797 -1.57149 -1.60357	3.58231	5.04667	0.0883157 12.5016 0.82912 -15	0	-0	20.61 4.45006 1.43784 15.3203	3.01296	168.515	0 -30.3438 0 -0	41.3945	-0	0 -18.964 0 1.4013e-014	-5.34554e-016	-94.3692	0 -9.48199 0 1.22245	4.37968	-2.58917e-014	0 -3.17138 0 -0	7.12502	-0	0 -9.48199 0 25	15	-1.36605e-015	0.0883157 12.5016 0.82912 15	0	-0	-20.61 4.45 1.44 -22.4704	-0.322418	-151.942	0 -29.5102 0 -0	28.9673	-0	0 -19.2342 0 3.84716e-016	-2.29148e-015	109.061	0 -9.61712 0 1.22	4.38	-0	0 -3.29215 0 -0	7.12502	-0	0 -9.61712 0 25	15	-7.97034e-015	-8.46272 -9.62775 4.76248 -0.235483	-15.8775	3.16133	1.00552e-005 -38.0331 0 -0	70.4097	-0	1.14428e-005 -43.2815 0 -1.4849e-015	-62.8091	-1.6694e-015	0 -14.1868 -3.08763 -0	-48.2367	-0	9.10607 -9.62778 4.76249 -8.97563	-5.621	-1.71298	-1.01399e-005 -38.3535 0 -0	29.1173	-0	-1.12937e-005 -42.7176 0 6.20122e-015	-73.5395	6.74269e-015	0 -13.9965 -2.83857 -0	-31.2505	-0
-2.891	98.6007	134.127	1.81356	-5.50605	-3.05282	0 0 0 -1.41406	6.18951	-0.337164	-0.214371 12.3768 -1.12219 0.33074	1.7361	-0.53064	-0.00137213 12.3873 0.296195 1.16915	-1.66331	-0.263259	0.0883157 12.5016 0.82912 3.64616	-1.59779	7.74317	-1 10.1794 0.943522 -7.59347	19.852	10.9348	0.667525 10.2797 -1.57149 -1.57998	3.57504	5.02761	0.0883157 12.5016 0.82912 -15	0	-0	20.61 4.45006 1.43784 15.4473	2.58413	167.716	0 -30.3438 0 -0	42.9133	-0	0 -18.964 0 1.40169e-014	-4.80689e-016	-93.9282	0 -9.48199 0 1.22245	4.37968	-2.58917e-014	0 -3.17138 0 -0	7.12502	-0	0 -9.48199 0 25	15	-1.36605e-015	0.0883157 12.5016 0.82912 15	0	-0	-20.61 4.45 1.44 -22.6794	0.348024	-152.493	0 -29.5102 0 -0	28.01	-0	0 -19.2342 0 3.94778e-016	-2.32039e-015	109.311	0 -9.61712 0 1.22	4.38	-0	0 -3.29215 0 -0	7.12502	-0	0 -9.61712 0 25	15	-7.97034e-015	-8.46272 -9.62775 4.76248 -0.185337	-16.9835	3.14053	1.00552e-005 -38.0331 0 -0	69.8078	-0	1.14428e-005 -43.2815 0 -1.54389e-015	-63.706	-1.72208e-015	0 -14.1868 -3.08763 -0	-48.1044	-0	9.10607 -9.62778 4.76249 -9.06315	-4.9532	-1.90108	-1.01399e-005 -38.3535 0 -0	29.0801	-0	-1.12937e-005 -42.7176 0 6.43537e-015	-74.0851	6.96756e-015	0 -13.9965 -2.83857 -0	-31.3653	-0
-2.88324	98.4952	135.047	1.85763	-5.52908	-2.57908	0 0 0 -1.48797	6.24387	-0.452911	-0.214371 12.3768 -1.12219 0.399891	1.74614	-0.688667	-0.00137213 12.3873 0.296195 1.29493	-1.6757	-0.341707	0.0883157 12.5016 0.82912 3.55825	-1.52792	7.70583	-1 10.1794 0.943522 -7.53157	19.894	10.8925	0.667525 10.2797 -1.57149 -1.5516	3.56486	5.00776	0.0883157 12.5016 0.82912 -15	0	-0	20.61 4.45006 1.43784 15.5873	2.18436	166.949	0 -30.3438 0 -0	44.4514	-0	0 -18.964 0 1.40202e-014	-4.30878e-016	-93.5206	0 -9.48199 0 1.22245	4.37968	-2.58917e-014	0 -3.17138 0 -0	7.12502	-0	0 -9.48199 0 25	15	-1.36605e-015	0.0883157 12.5016 0.82912 15	0	-0	-20.61 4.45 1.44 -22.9108	1.03469	-153.08	0 -29.5102 0 -0	27.0698	-0	0 -19.2342 0 4.05622e-016	-2.35111e-015	109.577	0 -9.61712 0 1.22	4.38	-0	0 -3.29215 0 -0	7.12502	-0	0 -9.61712 0 25	15	-7.97034e-015	-8.46272 -9.62775 4.76248 -0.16585	-18.0363	3.17028	1.00552e-005 -38.0331 0 -0	69.0035	-0	1.14428e-005 -43.2815 0 -1.60138e-015	-64.5286	-1.77381e-015	0 -14.1868 -3.08763 -0	-48.0298	-0	9.10607 -9.62778 4.76249 -9.16666	-4.28398	-2.08701	-1.01399e-005 -38.3535 0 -0	29.0189	-0	-1.12937e-005 -42.7176 0 6.68072e-015	-74.6202	7.20382e-015	0 -13.9965 -2.83857 -0	-31.4649	-0
-2.87656	98.4131	135.966	1.92574	-5.54188	-2.1087	0 0 0 -1.5917	6.30336	-0.565382	-0.214371 12.3768 -1.12219 0.462678	1.74692	-0.844536	-0.00137213 12.3873 0.296195 1.43109	-1.69969	-0.418788	0.0883157 12.5016 0.82912 3.46748	-1.46173	7.6672	-1 10.1794 0.943522 -7.4581	19.9315	10.8472	0.667525 10.2797 -1.57149 -1.51946	3.55276	4.98692	0.0883157 12.5016 0.82912 -15	0	-0	20.61 4.45006 1.43784 15.74	1.81235	166.214	0 -30.3438 0 -0	46.0014	-0	0 -18.964 0 1.40228e-014	-3.85668e-016	-93.1508	0 -9.48199 0 1.22245	4.37968	-2.58917e-014	0 -3.17138 0 -0	7.12502	-0	0 -9.48199 0 25	15	-1.36605e-015	0.0883157 12.5016 0.82912 15	0	-0	-20.61 4.45 1.44 -23.162	1.73509	-153.701	0 -29.5102 0 -0	26.1423	-0	0 -19.2342 0 4.17981e-016	-2.38558e-015	109.876	0 -9.61712 0 1.22	4.38	-0	0 -3.29215 0 -0	7.12502	-0	0 -9.61712 0 25	15	-7.97034e-015	-8.46272 -9.62775 4.76248 -0.176006	-19.0265	3.25656	1.00552e-005 -38.0331 0 -0	67.9896	-0	1.14428e-005 -43.2815 0 -1.65825e-015	-65.2964	-1.82532e-015	0 -14.1868 -3.08763 -0	-47.9746	-0	9.10607 -9.62778 4.76249 -9.28333	-3.60506	-2.26994	-1.01399e-005 -38.3535 0 -0	28.9173	-0	-1.12937e-005 -42.7176 0 6.93003e-015	-75.1291	7.44449e-015	0 -13.9965 -2.83857 -0	-31.5536	-0
-2.86983	98.3605	136.877	2.01468	-5.54497	-1.6438	0 0 0 -1.72078	6.36714	-0.673473	-0.214371 12.3768 -1.12219 0.519043	1.73998	-0.996518	-0.00137213 12.3873 0.296195 1.57485	-1.7332	-0.493692	0.0883157 12.5016 0.82912 3.37556	-1.40329	7.62674	-1 10.1794 0.943522 -7.37539	19.9642	10.7979	0.667525 10.2797 -1.57149 -1.48455	3.5397	4.96455	0.0883157 12.5016 0.82912 -15	0	-0	20.61 4.45006 1.43784 15.9042	1.465	165.51	0 -30.3438 0 -0	47.5558	-0	0 -18.964 0 1.40249e-014	-3.45431e-016	-92.8218	0 -9.48199 0 1.22245	4.37968	-2.58917e-014	0 -3.17138 0 -0	7.12502	-0	0 -9.48199 0 25	15	-1.36605e-015	0.0883157 12.5016 0.82912 15	0	-0	-20.61 4.45 1.44 -23.4298	2.44632	-154.355	0 -29.5102 0 -0	25.2238	-0	0 -19.2342 0 4.32677e-016	-2.42584e-015	110.226	0 -9.61712 0 1.22	4.38	-0	0 -3.29215 0 -0	7.12502	-0	0 -9.61712 0 25	15	-7.97034e-015	-8.46272 -9.62775 4.76248 -0.213416	-19.9444	3.40588	1.00552e-005 -38.0331 0 -0	66.759	-0	1.14428e-005 -43.2815 0 -1.71513e-015	-66.022	-1.87714e-015	0 -14.1868 -3.08763 -0	-47.908	-0	9.10607 -9.62778 4.76249 -9.40915	-2.90868	-2.44951	-1.01399e-005 -38.3535 0 -0	28.7597	-0	-1.12937e-005 -42.7176 0 7.174e-015	-75.5962	7.68055e-015	0 -13.9965 -2.83857 -0	-31.6356	-0
